<svg aria-hidden="true" style="position: absolute; width: 0; height: 0; overflow: hidden;" version="1.1" xmlns="http://www.w3.org/2000/svg" xmlns:xlink="http://www.w3.org/1999/xlink">
<defs>
<symbol id="icon-01_section1_weather1" viewBox="0 0 32 32">
<path fill="#ea8271" style="fill: var(--color1, #ea8271)" d="M21.715 16c0 3.156-2.559 5.715-5.715 5.715s-5.715-2.559-5.715-5.715c0-3.156 2.559-5.715 5.715-5.715s5.715 2.559 5.715 5.715z"></path>
<path fill="#ea8271" style="fill: var(--color1, #ea8271)" d="M24 15.427h7.427c0.316 0 0.573 0.256 0.573 0.573v-0.003c0 0.316-0.256 0.573-0.573 0.573h-7.427c-0.316 0-0.573-0.256-0.573-0.573v0.003c0-0.316 0.256-0.573 0.573-0.573z"></path>
<path fill="#ea8271" style="fill: var(--color1, #ea8271)" d="M0.573 15.427h7.427c0.316 0 0.573 0.256 0.573 0.573v-0.003c0 0.316-0.256 0.573-0.573 0.573h-7.427c-0.316 0-0.573-0.256-0.573-0.573v0.003c0-0.316 0.256-0.573 0.573-0.573z"></path>
<path fill="#ea8271" style="fill: var(--color1, #ea8271)" d="M15.43 7.997v-7.427c0-0.316 0.256-0.573 0.573-0.573h-0.003c0.316 0 0.573 0.256 0.573 0.573v7.427c0 0.316-0.256 0.573-0.573 0.573h0.003c-0.316 0-0.573-0.256-0.573-0.573z"></path>
<path fill="#ea8271" style="fill: var(--color1, #ea8271)" d="M15.427 31.427v-7.427c0-0.316 0.256-0.573 0.573-0.573h-0.003c0.316 0 0.573 0.256 0.573 0.573v7.427c0 0.316-0.256 0.573-0.573 0.573h0.003c-0.316 0-0.573-0.256-0.573-0.573z"></path>
<path fill="#ea8271" style="fill: var(--color1, #ea8271)" d="M21.252 9.938l5.252-5.252c0.224-0.224 0.586-0.224 0.81 0l-0.002-0.002c0.224 0.224 0.224 0.586 0 0.81l-5.252 5.252c-0.224 0.224-0.586 0.224-0.81 0l0.002 0.002c-0.224-0.224-0.224-0.586 0-0.81z"></path>
<path fill="#ea8271" style="fill: var(--color1, #ea8271)" d="M4.686 26.506l5.252-5.252c0.224-0.224 0.586-0.224 0.81 0l-0.002-0.002c0.224 0.224 0.224 0.586 0 0.81l-5.252 5.252c-0.224 0.224-0.586 0.224-0.81 0l0.002 0.002c-0.224-0.224-0.224-0.586 0-0.81z"></path>
<path fill="#ea8271" style="fill: var(--color1, #ea8271)" d="M9.937 10.747l-5.252-5.252c-0.224-0.224-0.224-0.586 0-0.81l-0.002 0.002c0.224-0.224 0.586-0.224 0.81 0l5.252 5.252c0.224 0.224 0.224 0.586 0 0.81l0.002-0.002c-0.224 0.224-0.586 0.224-0.81 0z"></path>
<path fill="#ea8271" style="fill: var(--color1, #ea8271)" d="M26.507 27.312l-5.252-5.252c-0.224-0.224-0.224-0.586 0-0.81l-0.002 0.002c0.224-0.224 0.586-0.224 0.81 0l5.252 5.252c0.224 0.224 0.224 0.586 0 0.81l0.002-0.002c-0.224 0.224-0.586 0.224-0.81 0z"></path>
</symbol>
</defs>
</svg>
